<?xml version="1.0" standalone="no"?>
<!DOCTYPE svg PUBLIC "-//W3C//DTD SVG 20010904//EN"
 "http://www.w3.org/TR/2001/REC-SVG-20010904/DTD/svg10.dtd">
<svg version="1.0" xmlns="http://www.w3.org/2000/svg"
 width="300.000000pt" height="300.000000pt" viewBox="0 0 300.000000 300.000000"
 preserveAspectRatio="xMidYMid meet">
<metadata>
Created by potrace 1.14, written by Peter Selinger 2001-2017
</metadata>
<g transform="translate(0.000000,300.000000) scale(0.100000,-0.100000)"
fill="#000000" stroke="none">
<path d="M347 2623 c-13 -12 -7 -40 11 -56 23 -21 65 -22 96 -2 13 9 30 13 39
9 14 -5 14 -10 -1 -52 -21 -63 -48 -85 -74 -59 -22 22 -62 47 -74 47 -16 0
-114 -130 -114 -152 0 -26 27 -22 69 9 45 34 52 44 47 66 -5 19 7 15 41 -15
l21 -20 -24 -48 c-36 -72 -45 -133 -25 -173 9 -17 24 -33 34 -35 27 -5 131 44
191 89 28 22 65 43 81 48 17 5 38 12 48 16 24 10 21 -6 -9 -50 -25 -38 -26
-65 -2 -65 17 0 65 68 73 103 10 40 27 21 23 -26 -2 -28 2 -42 11 -45 19 -6
41 26 41 60 0 15 5 28 10 28 16 0 12 -91 -6 -144 -17 -49 -10 -74 18 -63 19 7
48 98 49 151 0 36 2 38 11 19 6 -13 8 -41 4 -67 -9 -60 -9 -61 11 -61 11 0 23
16 34 45 14 37 19 42 25 26 5 -13 -1 -35 -20 -68 -25 -44 -26 -49 -10 -55 12
-4 25 3 44 26 23 27 29 29 34 16 9 -24 10 -23 -32 -44 -49 -25 -64 -42 -52
-61 8 -13 17 -11 60 12 51 26 51 26 48 5 -2 -15 -18 -29 -48 -44 -29 -14 -45
-28 -45 -40 0 -21 32 -21 78 2 37 18 37 18 37 0 0 -17 -42 -41 -85 -48 -64
-11 -78 -24 -50 -47 16 -13 68 -6 118 15 14 6 17 2 17 -23 l0 -29 -67 1 c-63
1 -68 -1 -71 -21 -4 -25 11 -31 84 -35 43 -3 50 -6 46 -21 -6 -25 -47 -32 -77
-13 -24 16 -55 13 -55 -6 0 -27 24 -48 61 -54 21 -4 42 -11 45 -16 9 -14 -57
-4 -84 13 -19 12 -24 11 -38 -3 -21 -21 -9 -39 37 -58 l30 -13 -23 -16 c-15
-10 -44 -16 -82 -16 -45 0 -61 -4 -70 -18 -14 -22 4 -36 40 -29 19 3 23 1 18
-12 -4 -10 -18 -16 -38 -16 -42 0 -71 -21 -63 -45 4 -10 13 -15 22 -11 8 3 15
3 15 0 0 -12 -29 -33 -51 -37 -55 -9 -80 -40 -44 -53 21 -8 0 -34 -27 -34 -31
0 -58 -19 -58 -42 0 -16 5 -19 24 -16 22 5 23 4 8 -22 -10 -18 -30 -31 -58
-38 -40 -11 -61 -33 -48 -54 3 -5 17 -7 31 -4 23 6 24 6 8 -18 -9 -14 -25 -28
-35 -31 -27 -9 -70 -63 -64 -80 9 -22 39 -18 53 7 10 21 11 19 7 -15 -3 -26
-14 -45 -35 -63 -39 -33 -42 -69 -6 -62 23 5 25 3 25 -37 0 -32 -5 -46 -21
-56 -23 -16 -17 -54 7 -45 8 3 20 9 28 12 24 10 24 -29 -1 -72 -13 -23 -26
-65 -30 -93 -5 -42 -3 -52 12 -57 21 -8 34 11 35 51 1 17 9 45 19 64 17 32 19
33 29 15 5 -10 13 -44 17 -74 10 -77 34 -132 54 -128 17 4 19 29 6 86 l-8 32
52 -26 c54 -28 59 -37 63 -114 3 -37 6 -45 23 -45 18 0 20 7 20 73 0 39 3 72
7 72 14 0 41 -51 53 -98 13 -49 21 -57 45 -42 12 7 12 17 4 57 -6 26 -14 56
-19 65 -5 13 -3 18 9 18 19 0 40 -45 51 -107 5 -33 11 -43 26 -43 10 0 19 6
20 13 3 33 -4 83 -16 117 -24 69 10 68 75 -1 46 -51 70 -58 70 -19 0 10 -16
37 -36 61 -26 32 -32 44 -22 50 22 14 33 10 75 -25 30 -26 43 -32 52 -23 18
18 13 37 -18 66 l-28 26 23 18 c22 16 23 16 56 -25 18 -23 38 -51 43 -62 15
-30 34 -30 41 -1 5 21 -2 39 -34 85 l-41 58 25 17 c14 9 33 13 43 10 27 -8 59
-47 63 -75 2 -17 9 -25 23 -25 17 0 20 6 19 41 0 32 -7 48 -29 68 -32 30 -32
31 11 40 30 7 33 5 47 -36 9 -24 18 -55 21 -70 4 -16 13 -28 21 -28 23 0 30
50 13 98 l-16 43 27 -3 c26 -3 26 -4 26 -78 0 -60 3 -75 16 -78 19 -4 40 59
34 105 -4 31 -3 31 24 22 l28 -10 -17 -74 c-10 -41 -23 -81 -29 -89 -11 -13
-6 -46 8 -46 26 1 56 57 66 125 l8 49 22 -28 22 -28 -22 -42 c-30 -53 -36 -78
-26 -94 8 -14 41 -6 41 9 0 5 7 26 16 47 l15 37 13 -24 c12 -21 11 -29 -5 -55
-20 -34 -13 -61 14 -50 9 3 19 15 23 26 4 13 11 17 22 12 65 -26 70 -27 100
-15 51 21 56 66 21 186 -32 105 -51 136 -141 224 -155 150 -239 191 -355 170
-105 -18 -144 -40 -248 -142 -109 -107 -194 -138 -313 -116 -55 10 -67 16 -83
43 -24 38 -22 95 4 150 11 22 86 107 167 190 81 83 163 169 182 191 18 22 46
54 62 70 97 101 120 325 62 603 -44 209 -68 258 -175 360 -136 128 -314 160
-522 93 -89 -29 -90 -29 -82 -8 4 12 7 35 8 51 0 23 -5 31 -25 37 -32 9 -175
11 -183 2z"/>
</g>
</svg>
